<svg xmlns="http://www.w3.org/2000/svg" width="1400" height="876" viewBox="0 0 1400 876">
  <defs>
    <filter id="shadow" x="-20%" y="-20%" width="140%" height="140%">
      <feDropShadow dx="0" dy="4" stdDeviation="10" flood-color="#0f172a" flood-opacity="0.10"/>
    </filter>
    <style>
      text{font-family:-apple-system,BlinkMacSystemFont,"Segoe UI","PingFang SC","Microsoft YaHei",sans-serif;fill:#172033}
      .muted{fill:#687386}.tiny{font-size:10px}.small{font-size:11px}.body{font-size:12px}.label{font-size:11px;fill:#667085}.value{font-size:12px;font-weight:600}.title{font-size:24px;font-weight:700}.section{font-size:14px;font-weight:700}.th{font-size:10px;font-weight:600;fill:#667085}.mono{font-family:ui-monospace,SFMono-Regular,Menlo,Monaco,Consolas,monospace}.border{stroke:#d9e0e8;stroke-width:1}.rowline{stroke:#e6ebf0;stroke-width:1}.green{fill:#22923a}.greenText{fill:#23883a}.panel{fill:#ffffff;stroke:#d9e0e8;stroke-width:1}.pill{fill:#eef3f6;stroke:#d7dee6;stroke-width:1}.badge{fill:#e9f7ed}.hoverCell{fill:#edf8f0}.drawerLabel{font-size:11px;fill:#738094}.drawerValue{font-size:12px;font-weight:600}.right{text-anchor:end}.center{text-anchor:middle}
    </style>
  </defs>

  <rect width="1400" height="876" fill="#f5f7fa"/>
  <rect x="0" y="0" width="190" height="876" fill="#ffffff"/>
  <line x1="190" y1="0" x2="190" y2="876" stroke="#d9e0e8"/>
  <rect x="0" y="0" width="1400" height="52" fill="#ffffff"/>
  <line x1="0" y1="52" x2="1400" y2="52" stroke="#d9e0e8"/>

  <!-- brand -->
  <rect x="14" y="11" rx="7" width="32" height="32" fill="#238f3b"/>
  <text x="30" y="32" text-anchor="middle" font-size="13" font-weight="700" fill="#fff">AG</text>
  <text x="56" y="29" font-size="15" font-weight="700">AI Gateway</text>
  <text x="142" y="29" class="tiny muted">v0.3</text>
  <text x="210" y="31" class="small muted">监控 / 请求事件</text>
  <text x="1142" y="31" class="small muted">⚿ 网关连接</text>
  <text x="1264" y="31" class="small muted">EN</text>
  <rect x="1290" y="11" rx="6" width="44" height="30" fill="#eef0f3"/>
  <text x="1312" y="30" class="small center" font-weight="700">中文</text>
  <circle cx="1362" cy="26" r="14" fill="#6c8bb6"/>
  <text x="1362" y="30" class="small center" fill="#fff" font-weight="700">A</text>

  <!-- sidebar -->
  <text x="16" y="84" class="tiny muted">监控</text>
  <text x="18" y="116" class="body muted">▦  总览</text>
  <text x="18" y="152" class="body muted">▥  用量分析</text>
  <rect x="8" y="170" width="174" height="38" rx="7" fill="#e9f5eb"/>
  <text x="18" y="194" class="body greenText" font-weight="700">▤  请求事件</text>
  <text x="18" y="230" class="body muted">◫  运行事件</text>
  <text x="16" y="274" class="tiny muted">配置</text>
  <text x="18" y="307" class="body muted">◇  来源管理</text>
  <text x="18" y="343" class="body muted">⌘  模型与路由</text>
  <text x="16" y="388" class="tiny muted">系统</text>
  <text x="18" y="421" class="body muted">⚙  系统设置</text>

  <!-- main -->
  <text x="214" y="92" class="title">请求事件</text>
  <text x="214" y="113" class="small muted">查看和分析所有通过 AI Gateway 的请求记录</text>

  <!-- filter -->
  <rect x="214" y="128" width="832" height="70" rx="10" class="panel"/>
  <g transform="translate(226 145)">
    <rect x="0" y="0" width="45" height="34" rx="7" class="pill"/><text x="22" y="22" class="small center" font-weight="600">今天</text>
    <rect x="51" y="0" width="45" height="34" rx="7" class="pill"/><text x="73" y="22" class="small center" font-weight="600">昨天</text>
    <rect x="102" y="0" width="92" height="34" rx="7" fill="#24963c"/><text x="148" y="22" class="small center" fill="#fff" font-weight="700">最近 24 小时</text>
    <rect x="200" y="0" width="45" height="34" rx="7" class="pill"/><text x="222" y="22" class="small center" font-weight="600">7 天</text>
    <rect x="251" y="0" width="48" height="34" rx="7" class="pill"/><text x="275" y="22" class="small center" font-weight="600">30 天</text>
    <rect x="305" y="0" width="54" height="34" rx="7" class="pill"/><text x="332" y="22" class="small center" font-weight="600">自定义</text>
  </g>
  <g transform="translate(595 138)">
    <text x="0" y="0" class="tiny" font-weight="600">逻辑模型</text><rect x="0" y="7" width="104" height="34" rx="7" class="pill"/><text x="12" y="29" class="small muted">全部</text><text x="88" y="29" class="small muted">⌄</text>
    <text x="116" y="0" class="tiny" font-weight="600">提供商</text><rect x="116" y="7" width="104" height="34" rx="7" class="pill"/><text x="128" y="29" class="small muted">全部</text><text x="204" y="29" class="small muted">⌄</text>
    <text x="232" y="0" class="tiny" font-weight="600">状态</text><rect x="232" y="7" width="100" height="34" rx="7" class="pill"/><text x="244" y="29" class="small muted">全部</text><text x="316" y="29" class="small muted">⌄</text>
    <rect x="344" y="7" width="82" height="34" rx="7" class="pill"/><text x="385" y="29" class="small center" font-weight="600">高级筛选</text>
  </g>

  <!-- table -->
  <rect x="214" y="210" width="832" height="590" rx="10" class="panel"/>
  <text x="232" y="240" class="section">请求事件</text>
  <line x1="214" y1="254" x2="1046" y2="254" class="rowline"/>
  <rect x="214" y="254" width="832" height="37" fill="#f8fafc"/>
  <text x="232" y="277" class="th">操作</text><text x="278" y="277" class="th">时间</text><text x="394" y="277" class="th">模型链路</text><text x="526" y="277" class="th">提供商</text><text x="606" y="277" class="th">客户端来源</text><text x="702" y="277" class="th">状态</text><text x="766" y="277" class="th">重试</text><text x="806" y="277" class="th">延迟</text><text x="860" y="277" class="th">Token ⓘ</text><text x="934" y="277" class="th">缓存 ⓘ</text>

  <rect x="214" y="291" width="832" height="44" fill="#f0f8f2"/>
  <g class="body">
    <text x="236" y="318">◉</text><text x="278" y="318" class="mono tiny">2026/9/14 11:09:36</text><text x="394" y="318" class="mono tiny" font-weight="700">k3-256k → k3-256k</text><text x="526" y="318" class="mono tiny">kimi_code</text><text x="606" y="318" class="mono tiny">codex-kimi3</text>
    <rect x="699" y="302" width="64" height="22" rx="11" class="badge"/><text x="731" y="317" class="tiny center greenText" font-weight="700">200 · 成功</text><text x="779" y="318" class="tiny">0</text><text x="812" y="318" class="tiny">32 s</text>
    <rect x="852" y="297" width="65" height="32" rx="6" class="hoverCell"/><text x="884" y="318" class="small center" font-weight="700">23.7K</text><rect x="924" y="297" width="82" height="32" rx="6" class="hoverCell"/><text x="965" y="318" class="small center" font-weight="700">96.4%</text>
  </g>

  <!-- table rows -->
  <g class="body mono">
    <line x1="214" y1="335" x2="1046" y2="335" class="rowline"/>
    <text x="236" y="363">◉</text><text x="278" y="363" class="tiny">2026/9/14 11:09:04</text><text x="394" y="363" class="tiny" font-weight="700">k3-256k → k3-256k</text><text x="526" y="363" class="tiny">kimi_code</text><text x="606" y="363" class="tiny">codex-kimi3</text><text x="779" y="363" class="tiny">0</text><text x="812" y="363" class="tiny">26 s</text><text x="884" y="363" class="tiny center">12.4K</text><text x="965" y="363" class="tiny center">88.1%</text>
    <rect x="699" y="347" width="64" height="22" rx="11" class="badge"/><text x="731" y="362" class="tiny center greenText" font-weight="700">200 · 成功</text>
    <line x1="214" y1="380" x2="1046" y2="380" class="rowline"/>
    <text x="236" y="408">◉</text><text x="278" y="408" class="tiny">2026/9/14 11:08:37</text><text x="394" y="408" class="tiny" font-weight="700">k3-256k → k3-256k</text><text x="526" y="408" class="tiny">kimi_code</text><text x="606" y="408" class="tiny">codex-kimi3</text><text x="779" y="408" class="tiny">0</text><text x="812" y="408" class="tiny">23 s</text><text x="884" y="408" class="tiny center">8.1K</text><text x="965" y="408" class="tiny center">91.2%</text>
    <rect x="699" y="392" width="64" height="22" rx="11" class="badge"/><text x="731" y="407" class="tiny center greenText" font-weight="700">200 · 成功</text>
    <line x1="214" y1="425" x2="1046" y2="425" class="rowline"/>
    <text x="236" y="453">◉</text><text x="278" y="453" class="tiny">2026/9/14 11:08:14</text><text x="394" y="453" class="tiny" font-weight="700">k3-256k → k3-256k</text><text x="526" y="453" class="tiny">kimi_code</text><text x="606" y="453" class="tiny">codex-kimi3</text><text x="779" y="453" class="tiny">0</text><text x="812" y="453" class="tiny">21 s</text><text x="884" y="453" class="tiny center">6.3K</text><text x="965" y="453" class="tiny center">73.6%</text>
    <rect x="699" y="437" width="64" height="22" rx="11" class="badge"/><text x="731" y="452" class="tiny center greenText" font-weight="700">200 · 成功</text>
    <line x1="214" y1="470" x2="1046" y2="470" class="rowline"/>
    <text x="236" y="498">◉</text><text x="278" y="498" class="tiny">2026/9/14 11:07:53</text><text x="394" y="498" class="tiny" font-weight="700">k3-256k → k3-256k</text><text x="526" y="498" class="tiny">kimi_code</text><text x="606" y="498" class="tiny">codex-kimi3</text><text x="779" y="498" class="tiny">0</text><text x="812" y="498" class="tiny">32 s</text><text x="884" y="498" class="tiny center">18.9K</text><text x="965" y="498" class="tiny center">95.1%</text>
    <rect x="699" y="482" width="64" height="22" rx="11" class="badge"/><text x="731" y="497" class="tiny center greenText" font-weight="700">200 · 成功</text>
    <line x1="214" y1="515" x2="1046" y2="515" class="rowline"/>
    <text x="236" y="543">◉</text><text x="278" y="543" class="tiny">2026/9/14 11:07:21</text><text x="394" y="543" class="tiny" font-weight="700">k3-256k → k3-256k</text><text x="526" y="543" class="tiny">kimi_code</text><text x="606" y="543" class="tiny">codex-kimi3</text><text x="779" y="543" class="tiny">0</text><text x="812" y="543" class="tiny">25 s</text><text x="884" y="543" class="tiny center">11.2K</text><text x="965" y="543" class="tiny center">89.3%</text>
    <rect x="699" y="527" width="64" height="22" rx="11" class="badge"/><text x="731" y="542" class="tiny center greenText" font-weight="700">200 · 成功</text>
    <line x1="214" y1="560" x2="1046" y2="560" class="rowline"/>
    <text x="236" y="588">◉</text><text x="278" y="588" class="tiny">2026/9/14 11:06:55</text><text x="394" y="588" class="tiny" font-weight="700">k3-256k → k3-256k</text><text x="526" y="588" class="tiny">kimi_code</text><text x="606" y="588" class="tiny">codex-kimi3</text><text x="779" y="588" class="tiny">0</text><text x="812" y="588" class="tiny">5.3 s</text><text x="884" y="588" class="tiny center">2.1K</text><text x="965" y="588" class="tiny center">0.0%</text>
    <rect x="699" y="572" width="64" height="22" rx="11" class="badge"/><text x="731" y="587" class="tiny center greenText" font-weight="700">200 · 成功</text>
    <line x1="214" y1="605" x2="1046" y2="605" class="rowline"/>
    <text x="236" y="633">◉</text><text x="278" y="633" class="tiny">2026/9/14 11:06:49</text><text x="394" y="633" class="tiny" font-weight="700">k3-256k → k3-256k</text><text x="526" y="633" class="tiny">kimi_code</text><text x="606" y="633" class="tiny">codex-kimi3</text><text x="779" y="633" class="tiny">0</text><text x="812" y="633" class="tiny">28 s</text><text x="884" y="633" class="tiny center">9.7K</text><text x="965" y="633" class="tiny center">92.8%</text>
    <rect x="699" y="617" width="64" height="22" rx="11" class="badge"/><text x="731" y="632" class="tiny center greenText" font-weight="700">200 · 成功</text>
    <line x1="214" y1="650" x2="1046" y2="650" class="rowline"/>
    <text x="236" y="678">◉</text><text x="278" y="678" class="tiny">2026/9/14 11:06:21</text><text x="394" y="678" class="tiny" font-weight="700">k3-256k → k3-256k</text><text x="526" y="678" class="tiny">kimi_code</text><text x="606" y="678" class="tiny">codex-kimi3</text><text x="779" y="678" class="tiny">0</text><text x="812" y="678" class="tiny">25 s</text><text x="884" y="678" class="tiny center">7.4K</text><text x="965" y="678" class="tiny center">87.5%</text>
    <rect x="699" y="662" width="64" height="22" rx="11" class="badge"/><text x="731" y="677" class="tiny center greenText" font-weight="700">200 · 成功</text>
  </g>

  <!-- token popover -->
  <g filter="url(#shadow)">
    <rect x="735" y="326" width="190" height="218" rx="10" fill="#fff" stroke="#d9e0e8"/>
  </g>
  <text x="750" y="352" class="body" font-weight="700">Token 用量详情</text>
  <text x="750" y="378" class="label">输入</text><text x="908" y="378" class="value right">23,373</text>
  <text x="750" y="401" class="label">输出</text><text x="908" y="401" class="value right">299</text>
  <text x="750" y="424" class="label">推理</text><text x="908" y="424" class="value right">143</text>
  <text x="750" y="447" class="label">缓存读取</text><text x="908" y="447" class="value right">22,528</text>
  <text x="750" y="470" class="label">缓存创建</text><text x="908" y="470" class="value right">0</text>
  <text x="750" y="493" class="label">总计</text><text x="908" y="493" class="value right">23,672</text>
  <line x1="750" y1="505" x2="908" y2="505" class="rowline"/>
  <text x="750" y="526" class="label">用量来源</text><text x="908" y="526" class="value right greenText">上游流式</text>

  <!-- cache popover -->
  <g filter="url(#shadow)"><rect x="918" y="326" width="176" height="151" rx="10" fill="#fff" stroke="#d9e0e8"/></g>
  <text x="934" y="352" class="body" font-weight="700">缓存详情</text>
  <text x="934" y="378" class="label">命中率</text><text x="1078" y="378" class="value right">96.4%</text>
  <text x="934" y="401" class="label">缓存读取</text><text x="1078" y="401" class="value right">22,528</text>
  <text x="934" y="424" class="label">缓存创建</text><text x="1078" y="424" class="value right">0</text>
  <text x="934" y="450" class="tiny muted">基于输入 Token 计算</text>

  <!-- drawer -->
  <rect x="1058" y="52" width="342" height="824" fill="#ffffff"/>
  <line x1="1058" y1="52" x2="1058" y2="876" stroke="#d9e0e8"/>
  <text x="1076" y="82" class="body mono" font-weight="700">49c3615b-cf77-4847-81b7-a463bbb8428c</text>
  <text x="1380" y="82" class="body muted">×</text>
  <rect x="1076" y="96" width="67" height="22" rx="11" class="badge"/><text x="1109" y="111" class="tiny center greenText" font-weight="700">200 · 成功</text>
  <text x="1154" y="111" class="tiny muted">31,733 ms  ·  Retry 0  ·  Streaming</text>
  <line x1="1058" y1="128" x2="1400" y2="128" class="rowline"/>

  <text x="1076" y="158" class="section">基本信息</text>
  <text x="1076" y="184" class="drawerLabel">时间</text><text x="1380" y="184" class="drawerValue right">2026/9/14 11:09:36</text>
  <line x1="1076" y1="195" x2="1380" y2="195" class="rowline"/>
  <text x="1076" y="216" class="drawerLabel">客户端来源</text><text x="1380" y="216" class="drawerValue right mono">codex-kimi3</text>
  <line x1="1076" y1="227" x2="1380" y2="227" class="rowline"/>
  <text x="1076" y="248" class="drawerLabel">账号</text><text x="1380" y="248" class="drawerValue right mono">kimi-main</text>
  <line x1="1076" y1="259" x2="1380" y2="259" class="rowline"/>
  <text x="1076" y="280" class="drawerLabel">协议</text><text x="1380" y="280" class="drawerValue right mono">openai_responses</text>
  <line x1="1076" y1="291" x2="1380" y2="291" class="rowline"/>
  <text x="1076" y="312" class="drawerLabel">用量来源</text><text x="1380" y="312" class="drawerValue right greenText">上游流式</text>

  <text x="1076" y="352" class="section">路由</text>
  <text x="1076" y="378" class="drawerLabel">逻辑模型</text><text x="1380" y="378" class="drawerValue right mono">k3-256k</text>
  <line x1="1076" y1="389" x2="1380" y2="389" class="rowline"/>
  <text x="1076" y="410" class="drawerLabel">上游模型</text><text x="1380" y="410" class="drawerValue right mono">k3-256k</text>
  <line x1="1076" y1="421" x2="1380" y2="421" class="rowline"/>
  <text x="1076" y="442" class="drawerLabel">提供商</text><text x="1380" y="442" class="drawerValue right mono">kimi_code</text>
  <line x1="1076" y1="453" x2="1380" y2="453" class="rowline"/>
  <text x="1076" y="474" class="drawerLabel">来源 ID</text><text x="1380" y="474" class="drawerValue right mono">kimi_code</text>

  <text x="1076" y="514" class="section">Token</text>
  <text x="1076" y="532" class="tiny muted">最终逻辑请求口径，不因回退重复累计</text>
  <text x="1076" y="559" class="drawerLabel">输入</text><text x="1380" y="559" class="drawerValue right">23,373</text>
  <line x1="1076" y1="570" x2="1380" y2="570" class="rowline"/>
  <text x="1076" y="591" class="drawerLabel">输出</text><text x="1380" y="591" class="drawerValue right">299</text>
  <line x1="1076" y1="602" x2="1380" y2="602" class="rowline"/>
  <text x="1076" y="623" class="drawerLabel">推理</text><text x="1380" y="623" class="drawerValue right">143</text>
  <line x1="1076" y1="634" x2="1380" y2="634" class="rowline"/>
  <text x="1076" y="655" class="drawerLabel">总计</text><text x="1380" y="655" class="drawerValue right">23,672</text>

  <text x="1076" y="695" class="section">缓存</text>
  <text x="1076" y="721" class="drawerLabel">缓存读取</text><text x="1380" y="721" class="drawerValue right">22,528</text>
  <line x1="1076" y1="732" x2="1380" y2="732" class="rowline"/>
  <text x="1076" y="753" class="drawerLabel">缓存创建</text><text x="1380" y="753" class="drawerValue right">0</text>
  <line x1="1076" y1="764" x2="1380" y2="764" class="rowline"/>
  <text x="1076" y="785" class="drawerLabel">命中率</text><text x="1380" y="785" class="drawerValue right">96.4%</text>

  <text x="1076" y="824" class="section">上游尝试</text>
  <rect x="1076" y="838" width="304" height="28" rx="5" fill="#f7f9fb"/>
  <text x="1087" y="856" class="tiny muted">#1</text><text x="1112" y="856" class="tiny mono">kimi-main</text><text x="1200" y="856" class="tiny greenText" font-weight="700">200</text><text x="1240" y="856" class="tiny muted">TTFT 1.2s</text><text x="1322" y="856" class="tiny muted">31.7s</text>

  <text x="214" y="834" class="tiny muted">UI concept · Issue #211 · request event density / token / cache hover</text>
</svg>