<svg xmlns="http://www.w3.org/2000/svg" width="1586" height="992" viewBox="0 0 1586 992">
  <style>
    .bg{fill:#f6f8fa}.panel{fill:#fff;stroke:#d9dee5;stroke-width:1.5}.muted{fill:#6b7280}.text{fill:#1f2937}.green{fill:#16a34a}.greenbg{fill:#eaf7ed}.bluebg{fill:#eef5ff}.pinkbg{fill:#fff1f1}.tag{fill:#f1f3f5}.line{stroke:#e5e7eb;stroke-width:1.5}.t{font-family:-apple-system,BlinkMacSystemFont,"Segoe UI","Noto Sans SC",sans-serif}.small{font-size:15px}.body{font-size:18px}.h2{font-size:26px;font-weight:700}.h1{font-size:34px;font-weight:750}.bold{font-weight:650}
  </style>
  <rect class="bg" width="1586" height="992"/>
  <rect x="0" y="0" width="230" height="992" fill="#fff"/><line x1="230" y1="0" x2="230" y2="992" class="line"/>
  <rect x="18" y="18" width="34" height="34" rx="7" class="green"/><text x="35" y="41" text-anchor="middle" fill="#fff" class="t body bold">AG</text><text x="64" y="41" class="t body bold text">AI Gateway</text><text x="166" y="41" class="t small muted">v0.3</text>
  <text x="20" y="105" class="t small muted">监控</text><text x="28" y="145" class="t body muted">总览</text><text x="28" y="185" class="t body muted">用量分析</text><text x="28" y="225" class="t body muted">请求事件</text><text x="28" y="265" class="t body muted">运行事件</text>
  <text x="20" y="320" class="t small muted">配置</text><text x="28" y="360" class="t body muted">来源管理</text><text x="28" y="400" class="t body muted">模型发现</text><rect x="8" y="418" width="214" height="44" rx="8" class="greenbg"/><text x="28" y="447" class="t body green bold">模型与路由</text><text x="28" y="490" class="t body muted">能力矩阵</text>
  <text x="20" y="545" class="t small muted">系统</text><text x="28" y="585" class="t body muted">系统设置</text>
  <rect x="230" y="0" width="1356" height="62" fill="#fff"/><line x1="230" y1="62" x2="1586" y2="62" class="line"/><rect x="786" y="16" width="260" height="32" rx="8" fill="#f3f4f6"/><text x="916" y="38" text-anchor="middle" class="t small muted">https://ai-gateway.pvelab.top</text><text x="1062" y="37" class="t small text bold">Admin Key</text><rect x="1145" y="16" width="154" height="32" rx="8" fill="#f3f4f6"/><text x="1222" y="38" text-anchor="middle" class="t small muted">GATEWAY_ADMIN_KE</text><rect x="1312" y="16" width="54" height="32" rx="8" class="panel"/><text x="1339" y="38" text-anchor="middle" class="t small text">应用</text><text x="1390" y="38" class="t small muted">☼</text><text x="1434" y="38" class="t small muted">EN</text><rect x="1470" y="14" width="64" height="36" rx="18" fill="#f1f3f5"/><text x="1502" y="38" text-anchor="middle" class="t small text bold">中文</text>
  <text x="255" y="113" class="t h1 text">模型与路由</text><text x="255" y="145" class="t body muted">先看每个逻辑模型走哪条主线路，失败后回退到哪里。</text>
  <rect x="255" y="170" width="88" height="42" rx="8" class="panel"/><text x="299" y="197" text-anchor="middle" class="t body green bold">模型</text><rect x="347" y="170" width="116" height="42" rx="8" fill="#eef0f2"/><text x="405" y="197" text-anchor="middle" class="t body text">高级设置</text><rect x="1400" y="136" width="130" height="42" rx="8" class="green"/><text x="1465" y="163" text-anchor="middle" fill="#fff" class="t body bold">+ 新增模型</text>
  <rect x="255" y="230" width="600" height="700" rx="14" class="panel"/><rect x="274" y="250" width="420" height="42" rx="8" class="panel"/><text x="294" y="277" class="t small muted">搜索模型名称...</text><rect x="705" y="250" width="128" height="42" rx="8" class="panel"/><text x="769" y="277" text-anchor="middle" class="t small text">全部状态</text>
  <text x="276" y="328" class="t small muted">逻辑模型</text><text x="480" y="328" class="t small muted">协议</text><text x="565" y="328" class="t small muted">主线路</text><text x="675" y="328" class="t small muted">备用</text><text x="724" y="328" class="t small muted">路由策略</text><text x="802" y="328" class="t small muted">状态</text>
  <rect x="255" y="342" width="600" height="98" class="greenbg"/><rect x="255" y="342" width="4" height="98" class="green"/><circle cx="284" cy="385" r="16" fill="#4f7cff"/><text x="311" y="378" class="t body text bold">deepseek-v4-flash</text><text x="311" y="403" class="t small muted">高效、快速的通用对话模型</text><rect x="472" y="361" width="54" height="22" rx="11" class="tag"/><text x="499" y="377" text-anchor="middle" class="t small muted">Chat</text><rect x="472" y="388" width="74" height="22" rx="11" class="tag"/><text x="509" y="404" text-anchor="middle" class="t small muted">Messages</text><rect x="472" y="415" width="78" height="22" rx="11" class="tag"/><text x="511" y="431" text-anchor="middle" class="t small muted">Responses</text><rect x="558" y="373" width="104" height="28" rx="14" class="tag"/><text x="610" y="392" text-anchor="middle" class="t small text">deepseek-main</text><text x="685" y="391" class="t body text">1</text><text x="728" y="391" class="t body text">主备</text><circle cx="806" cy="386" r="5" class="green"/><text x="818" y="392" class="t small green bold">正常</text>
  <g class="t"><line x1="255" y1="440" x2="855" y2="440" class="line"/><text x="311" y="488" class="body text bold">deepseek-v4-flash-vision-exp</text><text x="311" y="512" class="small muted">支持多模态的视觉增强模型</text><text x="311" y="586" class="body text bold">deepseek-v4-pro</text><text x="311" y="610" class="small muted">更强能力的专业模型</text><text x="311" y="684" class="body text bold">qwen-max</text><text x="311" y="708" class="small muted">通义千问旗舰模型</text><text x="311" y="782" class="body text bold">claude-3-5-sonnet</text><text x="311" y="806" class="small muted">Anthropic 最新对话模型</text><text x="311" y="880" class="body text bold">gpt-4o</text><text x="311" y="904" class="small muted">OpenAI 多模态模型</text></g>
  <rect x="875" y="230" width="655" height="700" rx="14" class="panel"/><circle cx="914" cy="279" r="19" fill="#4f7cff"/><text x="946" y="275" class="t h2 text">deepseek-v4-flash</text><rect x="1155" y="252" width="72" height="28" rx="14" class="greenbg"/><circle cx="1170" cy="266" r="5" class="green"/><text x="1183" y="272" class="t small green bold">正常</text><text x="946" y="301" class="t small muted">高效、快速的通用对话模型</text><rect x="1268" y="250" width="112" height="40" rx="8" class="green"/><text x="1324" y="276" text-anchor="middle" fill="#fff" class="t small bold">编辑模型</text><rect x="1391" y="250" width="124" height="40" rx="8" class="panel"/><text x="1453" y="276" text-anchor="middle" class="t small text">查看高级设置</text><line x1="895" y1="320" x2="1510" y2="320" class="line"/>
  <text x="895" y="355" class="t h2 text">上游线路</text><text x="895" y="382" class="t small muted">按优先级依次调用，主线路失败后自动回退到备用线路。</text><circle cx="913" cy="430" r="15" class="green"/><text x="913" y="436" text-anchor="middle" fill="#fff" class="t small bold">1</text><rect x="945" y="404" width="540" height="74" rx="10" class="panel"/><text x="965" y="428" class="t small muted">主线路</text><text x="965" y="453" class="t body text bold">deepseek-main</text><text x="965" y="472" class="t small muted">deepseek-v4-flash</text><rect x="1413" y="423" width="58" height="26" rx="13" class="greenbg"/><text x="1442" y="441" text-anchor="middle" class="t small green">健康</text><circle cx="913" cy="518" r="15" fill="#94a3b8"/><text x="913" y="524" text-anchor="middle" fill="#fff" class="t small bold">2</text><rect x="945" y="492" width="540" height="74" rx="10" class="panel"/><text x="965" y="516" class="t small muted">备用线路</text><text x="965" y="541" class="t body text bold">bai-main</text><text x="965" y="560" class="t small muted">deepseek-v4-flash</text><rect x="1413" y="511" width="58" height="26" rx="13" class="greenbg"/><text x="1442" y="529" text-anchor="middle" class="t small green">健康</text><line x1="895" y1="590" x2="1510" y2="590" class="line"/>
  <text x="895" y="625" class="t h2 text">路由策略</text><text x="895" y="652" class="t small muted">主线路失败时，自动回退到备用线路。</text><rect x="895" y="675" width="160" height="82" rx="10" class="pinkbg"/><text x="975" y="707" text-anchor="middle" class="t body text bold">请求进入</text><text x="975" y="732" text-anchor="middle" class="t small muted">deepseek-v4-flash</text><text x="1070" y="722" class="t h2 muted">→</text><rect x="1100" y="675" width="175" height="82" rx="10" class="greenbg"/><text x="1187" y="705" text-anchor="middle" class="t body green bold">优先调用主线路</text><text x="1187" y="731" text-anchor="middle" class="t small green">deepseek-main</text><text x="1292" y="708" class="t small muted">失败时</text><text x="1292" y="730" class="t small muted">自动回退 →</text><rect x="1360" y="675" width="150" height="82" rx="10" class="bluebg"/><text x="1435" y="705" text-anchor="middle" class="t body text bold">调用备用线路</text><text x="1435" y="731" text-anchor="middle" class="t small muted">bai-main</text><line x1="895" y1="780" x2="1510" y2="780" class="line"/>
  <text x="895" y="815" class="t h2 text">协议支持</text><text x="895" y="842" class="t small muted">该逻辑模型支持以下协议，均为原生支持。</text><rect x="895" y="862" width="190" height="54" rx="10" class="panel"/><text x="915" y="887" class="t body text bold">Chat Completions</text><text x="915" y="908" class="t small muted">/v1/chat/completions</text><rect x="1097" y="862" width="190" height="54" rx="10" class="panel"/><text x="1117" y="887" class="t body text bold">Messages</text><text x="1117" y="908" class="t small muted">/v1/messages</text><rect x="1299" y="862" width="190" height="54" rx="10" class="panel"/><text x="1319" y="887" class="t body text bold">Responses</text><text x="1319" y="908" class="t small muted">/v1/responses</text>
</svg>