<svg xmlns="http://www.w3.org/2000/svg" width="1280" height="720" viewBox="0 0 1280 720">
<style>
.t{font-family:Inter,"PingFang SC","Microsoft YaHei",Arial,sans-serif;fill:#17222d} .m{fill:#667085} .b{font-weight:700} .s{font-size:11px} .n{font-size:13px} .h{font-size:26px;font-weight:700} .h2{font-size:16px;font-weight:700} .card{fill:#fff;stroke:#dfe5eb;stroke-width:1} .green{fill:#1f9d3a} .gsoft{fill:#eaf7ed} .amber{fill:#fff5db} .orange{fill:#d98a00} .blue{fill:#eef5ff} .redsoft{fill:#fff0f0} .line{stroke:#e4e9ef;stroke-width:1} .pill{rx:9;ry:9}
</style>
<rect width="1280" height="720" fill="#f6f8fb"/>
<rect x="0" y="0" width="180" height="720" fill="#fff"/><line x1="180" y1="0" x2="180" y2="720" class="line"/>
<rect x="18" y="14" width="30" height="30" rx="7" class="green"/><text x="33" y="35" text-anchor="middle" fill="#fff" class="n b">AG</text><text x="58" y="34" class="h2">AI Gateway</text><text x="144" y="33" class="s m">v0.3</text>
<text x="18" y="84" class="s m">监控</text><text x="28" y="114" class="n m">▦  总览</text><text x="28" y="145" class="n m">▥  用量分析</text><text x="28" y="176" class="n m">▤  请求事件</text><text x="28" y="207" class="n m">▣  运行事件</text>
<text x="18" y="250" class="s m">配置</text><rect x="8" y="263" width="164" height="34" rx="7" class="gsoft"/><text x="28" y="285" class="n b" fill="#168a33">◇  来源管理</text><text x="28" y="325" class="n m">◉  模型与路由</text><text x="28" y="357" class="n m">≡  能力矩阵</text><text x="18" y="402" class="s m">系统</text><text x="28" y="434" class="n m">⚙  系统设置</text>
<rect x="0" y="0" width="1280" height="48" fill="#fff"/><line x1="180" y1="48" x2="1280" y2="48" class="line"/><rect x="720" y="12" width="220" height="26" rx="7" fill="#f3f5f7"/><text x="734" y="30" class="s m">https://ai-gateway.pvelab.top</text><text x="954" y="29" class="s b">Admin Key *</text><rect x="1016" y="12" width="120" height="26" rx="7" fill="#f7f8fa" stroke="#dfe5eb"/><text x="1027" y="29" class="s m">GATEWAY_ADMIN_KEY</text><rect x="1142" y="12" width="44" height="26" rx="7" fill="#fff" stroke="#dfe5eb"/><text x="1156" y="29" class="s b">应用</text><text x="1201" y="29" class="s m">EN</text><text x="1230" y="29" class="s b">中文</text>
<text x="205" y="77" class="s m">来源管理 / DeepSeek / 编辑来源</text><text x="205" y="111" class="h">编辑来源</text><text x="205" y="134" class="n m">配置来源的连接信息、账号和同步设置，用于从上游获取和管理模型。</text>
<g transform="translate(205 155)"><rect x="760" y="-50" width="82" height="32" rx="7" class="card"/><text x="789" y="-29" class="n b">取消</text><rect x="850" y="-50" width="92" height="32" rx="7" class="card"/><text x="870" y="-29" class="n b">测试连接</text><rect x="950" y="-50" width="105" height="32" rx="7" class="green"/><text x="973" y="-29" class="n b" fill="#fff">保存更改</text>
<rect width="690" height="190" rx="10" class="card"/><text x="18" y="29" class="h2">基本信息</text><text x="18" y="60" class="s b">来源名称 *</text><rect x="18" y="70" width="310" height="32" rx="6" fill="#fff" stroke="#dfe5eb"/><text x="30" y="91" class="n">DeepSeek</text><text x="350" y="60" class="s b">来源 ID *</text><rect x="350" y="70" width="320" height="32" rx="6" fill="#fff" stroke="#dfe5eb"/><text x="362" y="91" class="n">deepseek</text><text x="18" y="126" class="s b">Provider Preset *</text><rect x="18" y="136" width="310" height="34" rx="6" fill="#fff" stroke="#dfe5eb"/><text x="30" y="158" class="n">DeepSeek⌄</text><text x="350" y="126" class="s b">描述</text><rect x="350" y="136" width="320" height="34" rx="6" fill="#fff" stroke="#dfe5eb"/><text x="362" y="158" class="s m">DeepSeek 官方 API 接入</text>
<rect y="205" width="690" height="175" rx="10" class="card"/><text x="18" y="234" class="h2">接口配置</text><text x="18" y="263" class="s b">Base URL *</text><rect x="18" y="274" width="310" height="31" rx="6" fill="#fff" stroke="#dfe5eb"/><text x="30" y="295" class="n">https://api.deepseek.com</text><text x="350" y="263" class="s b">Chat Endpoint *</text><rect x="350" y="274" width="320" height="31" rx="6" fill="#fff" stroke="#dfe5eb"/><text x="362" y="295" class="n">/v1/chat/completions</text><text x="18" y="325" class="s b">Responses Endpoint</text><rect x="18" y="336" width="310" height="31" rx="6" fill="#fff" stroke="#dfe5eb"/><text x="30" y="357" class="n">/v1/responses</text><text x="350" y="325" class="s b">Messages Endpoint</text><rect x="350" y="336" width="320" height="31" rx="6" fill="#fff" stroke="#dfe5eb"/><text x="362" y="357" class="n">/v1/messages</text>
<rect y="395" width="690" height="125" rx="10" class="card"/><text x="18" y="424" class="h2">账号绑定</text><text x="18" y="456" class="s m">显示名称</text><text x="185" y="456" class="s m">账号 ID</text><text x="350" y="456" class="s m">状态</text><text x="18" y="486" class="n">DeepSeek 主账号</text><text x="185" y="486" class="n">deepseek@prod</text><text x="350" y="486" class="s" fill="#168a33">● 已启用</text><text x="500" y="486" class="s">编辑   删除</text>
<rect y="535" width="690" height="120" rx="10" class="card"/><text x="18" y="564" class="h2">模型同步设置</text><text x="18" y="596" class="n">启用上游模型同步</text><rect x="185" y="580" width="42" height="20" rx="10" class="green"/><text x="18" y="625" class="s m">保存后可从来源详情执行“检查模型更新”</text>
<rect x="710" width="345" height="180" rx="10" class="card"/><text x="728" y="29" class="h2">配置摘要</text><text x="728" y="62" class="s m">来源状态</text><text x="825" y="62" class="n" fill="#168a33">● 已启用</text><text x="728" y="94" class="s m">绑定账号数</text><text x="825" y="94" class="n">1 个</text><text x="728" y="126" class="s m">支持协议</text><text x="825" y="126" class="n">Chat · Responses · Messages</text><text x="728" y="158" class="s m">最后修改</text><text x="825" y="158" class="s">2026-09-12 11:25</text>
<rect x="710" y="195" width="345" height="250" rx="10" class="card"/><text x="728" y="224" class="h2">接入流程提示</text><text x="728" y="260" class="n b" fill="#168a33">1  新增来源</text><text x="745" y="280" class="s m">填写基础信息与接口配置</text><text x="728" y="315" class="n b" fill="#168a33">2  测试连接</text><text x="745" y="335" class="s m">验证接口和账号可用性</text><text x="728" y="370" class="n b" fill="#168a33">3  检查模型更新</text><text x="745" y="390" class="s m">同步上游模型列表</text><text x="728" y="425" class="n b" fill="#168a33">4  审核确认 → 模型与路由</text>
<rect x="710" y="460" width="345" height="195" rx="10" class="card"/><text x="728" y="489" class="h2">最近验证状态</text><text x="728" y="525" class="n">URL 连通性</text><text x="930" y="525" class="s" fill="#168a33">✓ 正常</text><text x="728" y="560" class="n">账号健康状态</text><text x="930" y="560" class="s" fill="#168a33">✓ 正常</text><text x="728" y="595" class="n">接口功能测试</text><text x="930" y="595" class="s" fill="#168a33">✓ 成功</text></g>
</svg>